<?xml version="1.0" encoding="utf-8"?>
<!-- Generator: Adobe Illustrator 24.0.1, SVG Export Plug-In . SVG Version: 6.00 Build 0)  -->
<svg version="1.1" id="Layer_1" xmlns="http://www.w3.org/2000/svg" xmlns:xlink="http://www.w3.org/1999/xlink" x="0px" y="0px"
	 viewBox="0 0 512 512" style="enable-background:new 0 0 512 512;" xml:space="preserve">
<style type="text/css">
	.st0{clip-path:url(#SVGID_2_);}
	.st1{fill:#FF6464;}
	.st2{fill:#898989;}
	.st3{fill:#FFD04A;}
	.st4{fill:#707070;}
	.st5{fill:#565656;}
	.st6{fill:#BCBCBC;}
	.st7{fill:#D6D6D6;}
	.st8{fill:#E6BB43;}
</style>
<g>
	<defs>
		<circle id="SVGID_1_" cx="256" cy="256" r="256"/>
	</defs>
	<clipPath id="SVGID_2_">
		<use xlink:href="#SVGID_1_"  style="overflow:visible;"/>
	</clipPath>
	<g class="st0">
		<rect class="st1" width="512" height="512"/>
		<g>
			<path class="st2" d="M112.03,170.37h140.34v203.49H112.03V170.37z"/>
			<path class="st3" d="M105.02,142.31h154.37c3.88,0,7.02,3.14,7.02,7.02v14.03c0,3.88-3.14,7.02-7.02,7.02H105.02
				c-3.88,0-7.02-3.14-7.02-7.02v-14.03C98,145.45,101.14,142.31,105.02,142.31z"/>
			<path class="st3" d="M105.02,373.86h154.37c3.88,0,7.02,3.14,7.02,7.02v14.03c0,3.88-3.14,7.02-7.02,7.02H105.02
				c-3.88,0-7.02-3.14-7.02-7.02v-14.03C98,377.01,101.14,373.86,105.02,373.86z"/>
			<path class="st4" d="M252.37,198.44h98.24c7.75,0,14.03,6.28,14.03,14.03v119.29c0,7.75-6.28,14.03-14.03,14.03h-98.24V198.44z"
				/>
			<path class="st5" d="M133.08,191.42h14.03v14.03h-14.03V191.42z"/>
			<path class="st5" d="M161.15,191.42h14.03v14.03h-14.03V191.42z"/>
			<path class="st5" d="M189.22,191.42h14.03v14.03h-14.03V191.42z"/>
			<path class="st5" d="M273.42,219.49h14.03v14.03h-14.03V219.49z"/>
			<path class="st5" d="M301.49,219.49h14.03v14.03h-14.03V219.49z"/>
			<path class="st5" d="M329.56,219.49h14.03v14.03h-14.03V219.49z"/>
			<path class="st5" d="M273.42,310.71h14.03v14.03h-14.03V310.71z"/>
			<path class="st5" d="M301.49,310.71h14.03v14.03h-14.03V310.71z"/>
			<path class="st5" d="M329.56,310.71h14.03v14.03h-14.03V310.71z"/>
			<path class="st2" d="M512,198.44h-77.19c-7.75,0-14.03,6.28-14.03,14.03v119.29c0,7.75,6.28,14.03,14.03,14.03H512"/>
			<g>
				<path class="st5" d="M441.83,219.49h14.03v14.03h-14.03V219.49z"/>
				<path class="st5" d="M469.9,219.49h14.03v14.03H469.9V219.49z"/>
				<path class="st5" d="M497.97,219.49H512v14.03h-14.03V219.49z"/>
				<path class="st5" d="M441.83,310.71h14.03v14.03h-14.03V310.71z"/>
				<path class="st5" d="M469.9,310.71h14.03v14.03H469.9V310.71z"/>
				<path class="st5" d="M497.97,310.71H512v14.03h-14.03V310.71z"/>
				<path class="st5" d="M133.08,338.78h14.03v14.03h-14.03V338.78z"/>
				<path class="st5" d="M161.15,338.78h14.03v14.03h-14.03V338.78z"/>
				<path class="st5" d="M189.22,338.78h14.03v14.03h-14.03V338.78z"/>
				<path class="st5" d="M217.29,191.42h14.03v14.03h-14.03V191.42z"/>
				<path class="st5" d="M217.29,338.78h14.03v14.03h-14.03V338.78z"/>
			</g>
			<path class="st6" d="M385.69,219.36H398v14.31h-12.31V219.36z"/>
			<path class="st6" d="M385.69,247.56h12.07v14.03h-12.07V247.56z"/>
			<path class="st6" d="M385.69,275.63h12.07v14.03h-12.07V275.63z"/>
			<path class="st6" d="M385.69,303.69h12.07v14.03h-12.07V303.69z"/>
			<path class="st6" d="M385.69,331.76h12.07v14.03h-12.07V331.76z"/>
			<path class="st6" d="M385.69,359.83h12.07v14.03h-12.07V359.83z"/>
			<path class="st6" d="M417.23,40.39c-17.36,0.02-31.43,13.69-31.45,30.57v134.5h12.58V95.26c5.41,4.04,12.04,6.25,18.87,6.27
				c17.37,0,31.45-13.69,31.45-30.57S434.59,40.39,417.23,40.39z M417.23,89.3c-10.42,0-18.87-8.21-18.87-18.34
				s8.45-18.34,18.87-18.34s18.87,8.21,18.87,18.34C436.08,81.08,427.64,89.28,417.23,89.3z"/>
			<path class="st7" d="M499,119.87H335.45c-17.37,0-31.45,13.69-31.45,30.57S318.08,181,335.45,181
				c17.37,0,31.45-13.69,31.45-30.57c-0.02-6.64-2.29-13.08-6.45-18.34H499V119.87z M354.32,150.43c0,10.13-8.45,18.34-18.87,18.34
				s-18.87-8.21-18.87-18.34c0-10.13,8.45-18.34,18.87-18.34C345.87,132.1,354.31,140.31,354.32,150.43z"/>
			<path class="st8" d="M175.19,114.24h14.03c7.75,0,14.03,6.28,14.03,14.03v14.03h-42.1v-14.03
				C161.15,120.52,167.44,114.24,175.19,114.24z"/>
			<path class="st8" d="M161.15,401.93h42.1v14.03c0,7.75-6.28,14.03-14.03,14.03h-14.03c-7.75,0-14.03-6.28-14.03-14.03V401.93z"/>
		</g>
	</g>
</g>
</svg>
