<?xml version="1.0" encoding="utf-8"?>
<!-- Generator: Adobe Illustrator 24.0.1, SVG Export Plug-In . SVG Version: 6.00 Build 0)  -->
<svg version="1.1" id="Layer_1" xmlns="http://www.w3.org/2000/svg" xmlns:xlink="http://www.w3.org/1999/xlink" x="0px" y="0px"
	 viewBox="0 0 512 512" style="enable-background:new 0 0 512 512;" xml:space="preserve">
<style type="text/css">
	.st0{fill:#FFFFFF;}
</style>
<g>
	<g>
		<path class="st0" d="M405.3,213.9V106.7c0-23.5-19.1-42.7-42.7-42.7h-320C19.1,64,0,83.1,0,106.7V320c0,23.5,19.1,42.7,42.7,42.7
			h239.2c14,49.2,59.2,85.3,112.8,85.3c20.6,0,40.9-5.4,58.7-15.7c5.1-2.9,6.8-9.5,3.9-14.6c-2.9-5.1-9.5-6.9-14.6-3.9
			c-14.5,8.4-31.1,12.8-48,12.8c-52.9,0-96-43.1-96-96s43.1-96,96-96s96,43.1,96,96v10.7c0,11.8-9.6,21.3-21.3,21.3
			s-21.3-9.6-21.3-21.3v-42.7c0-5.9-4.8-10.7-10.7-10.7c-2.9,0-5.4,1.2-7.4,3c-9.4-8.4-21.7-13.7-35.3-13.7
			c-29.4,0-53.3,23.9-53.3,53.3s23.9,53.3,53.3,53.3c15.9,0,30-7.1,39.8-18.2c7.7,11,20.4,18.2,34.9,18.2
			c23.5,0,42.7-19.1,42.7-42.7v-10.7C512,269.6,465,219.3,405.3,213.9z M42.7,85.3h320c0.4,0,0.8,0.2,1.3,0.3L211.4,210.8
			c-5.4,3.4-13.3,2.7-16.8,0.5L41.4,85.6C41.9,85.6,42.2,85.3,42.7,85.3z M384,213.9c-59.7,5.4-106.7,55.7-106.7,116.8
			c0,3.6,0.2,7.1,0.5,10.7H42.7c-11.8,0-21.3-9.6-21.3-21.3V106.7c0-3,0.7-5.9,1.8-8.5L182,228.5c6.2,4.1,13.3,6.2,20.6,6.2
			c7,0,13.9-2,19.9-5.7c0.6-0.3,1.2-0.7,1.7-1.2L382.2,98.2c1.1,2.6,1.8,5.5,1.8,8.5L384,213.9L384,213.9z M394.7,362.7
			c-17.6,0-32-14.4-32-32s14.4-32,32-32s32,14.4,32,32S412.3,362.7,394.7,362.7z"/>
	</g>
</g>
</svg>
