<?xml version="1.0" encoding="utf-8"?>
<!-- Generator: Adobe Illustrator 24.0.1, SVG Export Plug-In . SVG Version: 6.00 Build 0)  -->
<svg version="1.1" id="Layer_1" xmlns="http://www.w3.org/2000/svg" xmlns:xlink="http://www.w3.org/1999/xlink" x="0px" y="0px"
	 viewBox="0 0 512 512" style="enable-background:new 0 0 512 512;" xml:space="preserve">
<style type="text/css">
	.st0{clip-path:url(#SVGID_2_);}
	.st1{fill:#69E8AE;}
	.st2{fill:#7D6599;}
	.st3{fill:#3D324C;}
	.st4{fill:#BDC3C7;}
	.st5{fill:#4482C3;}
	.st6{fill:#285680;}
</style>
<g>
	<defs>
		<circle id="SVGID_1_" cx="256" cy="256" r="256"/>
	</defs>
	<clipPath id="SVGID_2_">
		<use xlink:href="#SVGID_1_"  style="overflow:visible;"/>
	</clipPath>
	<g class="st0">
		<rect class="st1" width="512" height="512"/>
		<g>
			<path class="st2" d="M167.79,98.22v315.57h-44c-6.07-0.02-10.98-5.66-11-12.62V110.84c0.02-6.96,4.93-12.6,11-12.62L167.79,98.22
				L167.79,98.22z"/>
			<path class="st3" d="M399.21,110.84v290.32c-0.02,6.96-5.46,12.6-12.18,12.62H167.85V98.22h219.18
				C393.75,98.24,399.19,103.88,399.21,110.84z"/>
			<g>
				<circle class="st4" cx="140.29" cy="136.08" r="12.62"/>
				<circle class="st4" cx="140.29" cy="256" r="12.62"/>
				<circle class="st4" cx="140.29" cy="375.92" r="12.62"/>
			</g>
			<path class="st5" d="M218.65,224.44h126.23v69.42c0,3.49-2.83,6.31-6.31,6.31h-113.6c-3.49,0-6.31-2.83-6.31-6.31V224.44z"/>
			<path class="st6" d="M351.19,199.2v18.93c-0.01,3.48-2.83,6.3-6.31,6.31H218.65c-3.48-0.01-6.3-2.83-6.31-6.31V199.2H351.19z"/>
			<g>
				<polygon class="st4" points="265.42,199.2 240.17,224.44 222.37,224.44 247.62,199.2 				"/>
				<polygon class="st4" points="303.29,199.2 278.04,224.44 260.24,224.44 285.49,199.2 				"/>
				<polygon class="st4" points="341.15,199.2 315.91,224.44 298.11,224.44 323.36,199.2 				"/>
			</g>
			<path class="st6" d="M341.34,147.76l-32.76,13.06l-16.6,6.63l-18.62,7.38l-16.54,6.63l-18.62,7.45l-16.6,6.56l-9.28,3.72
				l-7.01-17.61c-0.63-1.56-0.61-3.3,0.05-4.84c0.66-1.54,1.92-2.75,3.48-3.36l26.89-10.73l16.54-6.56l18.62-7.45l16.54-6.56h0.06
				l18.56-7.45l16.54-6.56l0.06-0.06l3.41-1.33c1.55-0.64,3.29-0.63,4.83,0.02c1.54,0.65,2.76,1.9,3.38,3.45L341.34,147.76z"/>
			<g>
				<polygon class="st4" points="252.29,156.09 238.22,188.91 221.62,195.47 235.76,162.65 				"/>
				<polygon class="st4" points="287.51,142.08 273.37,174.84 256.83,181.46 270.91,148.64 287.45,142.08 				"/>
				<polygon class="st4" points="322.6,128.07 308.59,160.82 291.99,167.45 306.06,134.63 				"/>
				<path class="st4" d="M319.63,344.36H243.9c-3.49,0-6.31-2.83-6.31-6.31s2.83-6.31,6.31-6.31h75.74c3.49,0,6.31,2.83,6.31,6.31
					S323.12,344.36,319.63,344.36z"/>
				<path class="st4" d="M363.81,369.6h-164.1c-3.49,0-6.31-2.83-6.31-6.31s2.83-6.31,6.31-6.31h164.1c3.49,0,6.31,2.83,6.31,6.31
					S367.3,369.6,363.81,369.6z"/>
			</g>
		</g>
	</g>
</g>
</svg>
