<?xml version="1.0" encoding="utf-8"?>
<!-- Generator: Adobe Illustrator 24.0.1, SVG Export Plug-In . SVG Version: 6.00 Build 0)  -->
<svg version="1.1" id="Layer_1" xmlns="http://www.w3.org/2000/svg" xmlns:xlink="http://www.w3.org/1999/xlink" x="0px" y="0px"
	 viewBox="0 0 512 512" style="enable-background:new 0 0 512 512;" xml:space="preserve">
<style type="text/css">
	.st0{clip-path:url(#SVGID_2_);}
	.st1{fill:#ECF279;}
	.st2{fill:#E65D52;}
	.st3{fill:#FF675B;}
	.st4{fill:#898989;}
	.st5{fill:#A3A3A3;}
	.st6{fill:#FFA742;}
	.st7{fill:#E6A75E;}
	.st8{fill:#B3824A;}
	.st9{fill:#D99D59;}
	.st10{fill:#CC9454;}
	.st11{fill:#BF8B4F;}
	.st12{fill:#D6D6D6;}
	.st13{fill:#707070;}
	.st14{fill:#FFD04A;}
	.st15{fill:#CCA63B;}
	.st16{fill:#BCBCBC;}
	.st17{fill:#82E28C;}
	.st18{fill:#565656;}
</style>
<g>
	<defs>
		<circle id="SVGID_1_" cx="256" cy="256" r="256"/>
	</defs>
	<clipPath id="SVGID_2_">
		<use xlink:href="#SVGID_1_"  style="overflow:visible;"/>
	</clipPath>
	<g class="st0">
		<rect y="0" class="st1" width="512" height="512"/>
		<g>
			<path class="st2" d="M92.71,123.7l28.39-28.39l10.04,10.04l-28.39,28.39L92.71,123.7z"/>
			<path class="st2" d="M92.71,162.13l10.04-10.04l28.39,28.39l-10.04,10.04L92.71,162.13z"/>
			<path class="st3" d="M69.34,121.62h28.39c3.92,0,7.1,3.18,7.1,7.1v28.39c0,3.92-3.18,7.1-7.1,7.1H69.34
				c-11.76,0-21.3-9.54-21.3-21.3S57.58,121.62,69.34,121.62z"/>
			<path class="st4" d="M69.34,164.21h14.2v220.57h-14.2V164.21z"/>
			<path class="st5" d="M111.93,512.56h-14.2v-99.38c0-11.76-9.54-21.3-21.3-21.3s-21.3,9.54-21.3,21.3v99.38h-14.2v-99.38
				c0-19.6,15.89-35.49,35.49-35.49s35.49,15.89,35.49,35.49V512.56z"/>
			<g>
				<path class="st6" d="M168.72,135.82h21.3v14.2h-21.3V135.82z"/>
				<path class="st6" d="M151.22,107.78l15.06-15.06l10.04,10.04l-15.06,15.06L151.22,107.78z"/>
				<path class="st6" d="M151.22,178.05l10.04-10.04l15.06,15.06l-10.04,10.04L151.22,178.05z"/>
			</g>
			<g>
				<path class="st7" d="M136.77,349.29h78.09c7.84,0,14.2,6.36,14.2,14.2v21.3H122.57v-21.3
					C122.57,355.64,128.93,349.29,136.77,349.29z"/>
				<path class="st8" d="M229.05,505.46v-28.39H122.57v28.39c0,3.92,3.18,7.1,7.1,7.1h92.28
					C225.87,512.56,229.05,509.38,229.05,505.46z"/>
				<path class="st9" d="M122.57,384.78h35.49v92.28h-35.49V384.78z"/>
				<path class="st10" d="M158.07,384.78h35.49v92.28h-35.49V384.78z"/>
				<path class="st11" d="M193.56,384.78h35.49v92.28h-35.49V384.78z"/>
			</g>
			<g>
				<g>
					<path class="st12" d="M381.32,186.74l-11.56,10.53l-10.53-11.57l11.56-10.53c1.6-1.46,4.07-1.34,5.53,0.26l5.27,5.78
						C383.03,182.8,382.92,185.28,381.32,186.74z"/>
					<path class="st13" d="M376.31,175.43l14.45-13.16l5.27,5.78l-14.45,13.16L376.31,175.43z"/>
					<path class="st5" d="M252.26,283.12l106.96-97.42l10.53,11.56l-106.96,97.42L252.26,283.12z"/>
					<path class="st12" d="M433.35,139.34l-34.69,31.59l-10.53-11.57c-1.45-1.6-1.34-4.07,0.26-5.52l28.91-26.33
						c1.6-1.46,4.07-1.34,5.52,0.25L433.35,139.34z"/>
					<path class="st14" d="M463.39,207.17c-9.58,8.72-24.42,8.03-33.14-1.55l-31.59-34.69l34.69-31.59l31.59,34.69
						C473.67,183.61,472.97,198.45,463.39,207.17z"/>
					<path class="st15" d="M447.86,184.3l5.78-5.27l5.27,5.78l-5.78,5.27L447.86,184.3z"/>
					<path class="st15" d="M436.29,194.83l5.78-5.27l5.27,5.78l-5.78,5.27L436.29,194.83z"/>
					<path class="st15" d="M437.33,172.74l5.78-5.27l5.27,5.78l-5.78,5.27L437.33,172.74z"/>
					<path class="st15" d="M425.76,183.27l5.78-5.27l5.27,5.78l-5.78,5.27L425.76,183.27z"/>
					<path class="st15" d="M426.79,161.18l5.78-5.27l5.27,5.78l-5.78,5.27L426.79,161.18z"/>
					<path class="st15" d="M415.23,171.71l5.78-5.27l5.27,5.78l-5.78,5.27L415.23,171.71z"/>
					<path class="st13" d="M367.89,177.8l-5.78,5.27l-23.69-26.02c-4.35-4.79-4.01-12.21,0.77-16.57l28.91-26.33
						c4.8-4.36,12.21-4.01,16.57,0.77l5.27,5.78l-5.78,5.27l-5.27-5.78c-1.45-1.6-3.93-1.71-5.53-0.26l-28.91,26.33
						c-1.59,1.46-1.71,3.93-0.25,5.52L367.89,177.8z"/>
					<path class="st5" d="M384.41,120.45c6.39-5.82,16.28-5.35,22.1,1.03l7.9,8.67l-23.13,21.06l-7.9-8.67
						C377.56,136.16,378.02,126.27,384.41,120.45z"/>
				</g>
				<path class="st16" d="M240.58,257h113.58c3.92,0,7.1,3.18,7.1,7.1v42.59c0,3.92-3.18,7.1-7.1,7.1H240.58
					c-3.92,0-7.1-3.18-7.1-7.1V264.1C233.48,260.18,236.66,257,240.58,257z"/>
				<path class="st4" d="M361.26,264.1h28.39v42.59h-28.39V264.1z"/>
				<path class="st16" d="M389.65,306.69l23.26,11.63c1.1,0.55,2.41,0.49,3.45-0.16c1.05-0.64,1.68-1.79,1.68-3.02v-59.5
					c0-1.23-0.64-2.37-1.68-3.02c-1.05-0.65-2.35-0.71-3.45-0.16l-23.26,11.63V306.69z"/>
				<path class="st4" d="M268.98,313.79h56.79v14.2c0,7.84-6.36,14.2-14.2,14.2h-28.39c-7.84,0-14.2-6.36-14.2-14.2V313.79z"/>
				<path class="st3" d="M261.88,278.3h14.2v14.2h-14.2V278.3z"/>
				<path class="st17" d="M290.27,278.3h14.2v14.2h-14.2V278.3z"/>
				<path class="st12" d="M297.37,235.71c0,11.76-9.54,21.3-21.3,21.3s-21.3-9.54-21.3-21.3s9.54-21.3,21.3-21.3
					S297.37,223.95,297.37,235.71z"/>
				<path class="st5" d="M283.17,235.71c0,3.92-3.18,7.1-7.1,7.1c-3.92,0-7.1-3.18-7.1-7.1s3.18-7.1,7.1-7.1
					C280,228.61,283.17,231.79,283.17,235.71z"/>
				<path class="st12" d="M339.96,235.71c0,11.76-9.54,21.3-21.3,21.3c-11.76,0-21.3-9.54-21.3-21.3s9.54-21.3,21.3-21.3
					C330.43,214.41,339.96,223.95,339.96,235.71z"/>
				<path class="st5" d="M325.77,235.71c0,3.92-3.18,7.1-7.1,7.1c-3.92,0-7.1-3.18-7.1-7.1s3.18-7.1,7.1-7.1
					C322.59,228.61,325.77,231.79,325.77,235.71z"/>
				<path class="st18" d="M290.27,342.19h14.2v163.27h-14.2V342.19z"/>
				<path class="st4" d="M240.58,498.36h113.58v14.2H240.58V498.36z"/>
			</g>
		</g>
	</g>
</g>
</svg>
