<?xml version="1.0" encoding="utf-8"?>
<!-- Generator: Adobe Illustrator 24.0.1, SVG Export Plug-In . SVG Version: 6.00 Build 0)  -->
<svg version="1.1" id="Layer_1" xmlns="http://www.w3.org/2000/svg" xmlns:xlink="http://www.w3.org/1999/xlink" x="0px" y="0px"
	 viewBox="0 0 512 512" style="enable-background:new 0 0 512 512;" xml:space="preserve">
<style type="text/css">
	.st0{clip-path:url(#SVGID_2_);}
	.st1{fill:#9F9FFF;}
	.st2{fill:#455A64;}
	.st3{fill:#FFC107;}
	.st4{fill:#DBB600;}
</style>
<g>
	<defs>
		<circle id="SVGID_1_" cx="256" cy="256" r="256"/>
	</defs>
	<clipPath id="SVGID_2_">
		<use xlink:href="#SVGID_1_"  style="overflow:visible;"/>
	</clipPath>
	<g class="st0">
		<rect class="st1" width="512" height="512"/>
		<path class="st2" d="M483.14,21H357.47c-2.39,0-4.65,1.09-6.14,2.95l-62.84,78.55c-2.5,3.13-2.25,7.63,0.58,10.46l109.96,109.96
			c2.83,2.83,7.34,3.08,10.46,0.58l78.55-62.84c1.87-1.49,2.96-3.75,2.95-6.14V28.85C491,24.52,487.48,21,483.14,21z"/>
		<g>
			<path class="st3" d="M379.46,237.78l-94.25,125.67c-1.11,1.58-2.81,2.65-4.71,2.98l-154.73,30.95l-2.36,0.47
				c-0.51,0.13-1.04,0.18-1.57,0.16c-2.08,0.03-4.08-0.83-5.5-2.36c-1.89-1.83-2.72-4.49-2.2-7.07l0.47-2.36l30.95-154.73
				c0.33-1.9,1.4-3.6,2.98-4.71l125.67-94.25c3.11-2.37,7.5-2.03,10.21,0.79l94.25,94.25C381.49,230.28,381.83,234.67,379.46,237.78
				z"/>
			<path class="st4" d="M206.85,313.43l-84,84.12l-1.77,0.35c-0.39,0.1-0.79,0.14-1.18,0.12c-1.57,0.02-3.07-0.62-4.14-1.77
				c-1.43-1.38-2.05-3.38-1.66-5.32l0.35-1.77l84.12-84c2.31-2.26,6.02-2.23,8.28,0.08C209.08,307.51,209.08,311.15,206.85,313.43z"
				/>
			<circle class="st4" cx="220.46" cy="291.54" r="23.66"/>
		</g>
	</g>
</g>
</svg>
